<?xml version="1.0" standalone="no"?>
<!DOCTYPE svg PUBLIC "-//W3C//DTD SVG 20010904//EN"
 "http://www.w3.org/TR/2001/REC-SVG-20010904/DTD/svg10.dtd">
<svg version="1.0" xmlns="http://www.w3.org/2000/svg"
 width="2363.000000pt" height="1064.000000pt" viewBox="0 0 2363.000000 1064.000000"
 preserveAspectRatio="xMidYMid meet">

<g transform="translate(0.000000,1064.000000) scale(0.100000,-0.100000)"
fill="#000000" stroke="none">
<path d="M0 5320 l0 -5320 11815 0 11815 0 0 5320 0 5320 -11815 0 -11815 0 0
-5320z m3570 2620 c681 -42 1142 -209 1460 -530 280 -281 416 -693 380 -1144
-10 -133 -35 -284 -49 -299 -4 -4 -42 17 -84 46 -240 165 -432 411 -561 722
-82 196 -196 317 -395 418 -183 93 -384 149 -663 184 -187 23 -654 23 -873 -1
-159 -17 -303 -41 -313 -51 -16 -16 87 -438 164 -678 70 -215 157 -433 241
-602 67 -133 168 -311 184 -320 4 -3 32 8 61 24 141 79 352 142 543 162 377
40 865 -83 1205 -304 52 -34 154 -91 225 -128 l130 -67 7 -118 c9 -174 60
-399 129 -571 43 -109 62 -245 62 -458 0 -322 -65 -585 -201 -813 -55 -91
-164 -225 -235 -285 -69 -60 -58 -68 -146 108 -71 140 -106 244 -123 360 -10
71 -9 96 5 172 52 272 56 534 11 778 -18 100 -66 261 -86 288 -12 17 -15 17
-53 -2 -47 -22 -264 -94 -351 -116 -394 -98 -772 -79 -1039 54 l-100 50 -23
-27 c-134 -157 -281 -427 -374 -686 -72 -203 -150 -548 -159 -711 l-3 -50 59
-12 c193 -39 319 -48 655 -48 346 1 529 15 816 63 l102 17 22 -70 c37 -117
108 -277 174 -393 l63 -111 -86 -20 c-123 -29 -354 -68 -511 -87 -181 -21
-693 -30 -887 -15 -356 28 -719 92 -977 172 l-99 30 7 82 c3 45 18 172 32 282
101 794 308 1455 589 1880 36 55 63 105 61 112 -3 7 -32 52 -64 100 -216 324
-388 737 -511 1230 -89 357 -152 764 -168 1097 l-6 133 114 22 c584 109 1193
158 1639 131z m7603 -393 c65 -24 110 -50 169 -99 l28 -23 -51 -53 -51 -52
-41 35 c-103 89 -293 103 -431 33 -175 -89 -266 -365 -210 -636 42 -202 170
-333 343 -351 92 -9 181 3 240 34 l51 25 0 170 0 169 -132 3 -133 3 -2 68 -1
67 218 0 219 0 1 -269 0 -269 -31 -27 c-116 -97 -331 -144 -507 -110 -141 27
-249 94 -333 205 -95 126 -134 275 -126 479 2 69 12 153 21 186 77 284 304
450 601 440 66 -2 108 -10 158 -28z m4838 19 c262 -56 412 -291 412 -646 0
-159 -23 -271 -79 -388 -90 -186 -288 -299 -488 -278 -224 23 -376 163 -448
413 -20 69 -23 100 -23 258 1 175 2 183 33 275 47 142 114 237 210 299 114 73
246 96 383 67z m-3681 -25 c149 -32 250 -107 285 -211 25 -73 26 -198 2 -267
-32 -93 -131 -183 -234 -213 -24 -7 -43 -17 -43 -22 0 -4 74 -128 165 -274 91
-147 165 -271 165 -275 0 -5 -42 -9 -94 -9 l-93 0 -166 273 -165 272 -121 3
-121 3 -2 -273 -3 -273 -87 -3 -88 -3 0 647 0 647 278 -6 c152 -3 297 -10 322
-16z m792 -453 l3 -473 28 -60 c36 -76 60 -102 122 -131 39 -19 67 -24 128
-24 153 0 243 73 277 226 7 29 11 209 10 474 0 235 3 435 6 444 5 14 20 17 86
15 l79 -2 -3 -476 c-4 -424 -6 -482 -22 -531 -61 -187 -179 -278 -383 -295
-203 -17 -375 61 -447 202 -60 119 -59 118 -64 631 l-3 472 90 0 90 0 3 -472z
m1733 448 c98 -22 167 -59 219 -117 60 -66 80 -129 80 -244 -1 -154 -60 -258
-182 -323 -100 -53 -202 -70 -434 -71 l-128 -1 0 -255 0 -255 -85 0 -85 0 0
646 0 647 273 -6 c190 -4 293 -11 342 -21z m1020 -2231 c327 -87 525 -370 540
-770 7 -192 -30 -368 -107 -519 -61 -119 -183 -239 -299 -295 -48 -23 -112
-47 -142 -53 l-56 -12 14 -26 c20 -39 96 -105 154 -134 85 -44 172 -59 291
-52 58 3 113 7 124 8 15 3 22 -10 39 -71 16 -60 17 -75 6 -81 -25 -16 -137
-30 -241 -30 -202 0 -360 61 -488 190 -44 44 -88 99 -105 133 -22 41 -37 59
-55 63 -167 36 -261 85 -365 189 -94 94 -145 176 -185 302 -40 124 -51 202
-50 357 1 450 221 746 608 816 67 13 247 4 317 -15z m4026 -15 c99 -33 181
-78 241 -132 l37 -33 -58 -64 -58 -63 -49 35 c-156 112 -350 145 -507 87 -123
-46 -188 -177 -141 -288 35 -84 88 -118 369 -232 238 -97 301 -129 366 -188
89 -80 130 -175 130 -302 0 -199 -117 -349 -329 -423 -75 -26 -106 -31 -218
-35 -152 -5 -255 11 -373 60 -79 33 -201 110 -240 152 l-24 25 64 69 64 68 55
-44 c71 -58 194 -118 278 -138 147 -34 318 -11 409 56 118 87 126 281 15 368
-50 40 -110 69 -324 158 -225 94 -260 112 -326 164 -214 169 -198 483 33 639
151 103 388 128 586 61z m-9126 -510 c90 -283 188 -598 219 -699 31 -101 58
-187 61 -190 11 -10 23 22 86 228 34 113 131 424 214 691 l152 485 112 3 c61
1 111 1 111 0 -1 -2 -124 -367 -274 -813 l-273 -810 -125 -3 -126 -3 -80 238
c-44 131 -168 498 -276 816 l-195 578 116 -3 116 -3 162 -515z m2046 -290
c159 -443 289 -808 289 -812 0 -3 -51 -7 -113 -7 l-112 -1 -83 250 -84 250
-315 -2 -316 -3 -82 -245 -82 -245 -111 -2 -111 -2 28 77 c15 42 146 409 292
815 l264 738 123 -3 124 -3 289 -805z m785 757 c17 -28 80 -133 141 -232 358
-586 478 -786 553 -924 96 -175 97 -175 82 14 -5 61 -10 354 -11 653 l-1 542
100 0 100 0 0 -815 0 -816 -111 3 -112 3 -313 513 c-172 283 -352 584 -400
670 -47 87 -90 162 -96 167 -7 7 -9 -16 -4 -75 15 -203 21 -433 21 -840 l0
-435 -102 -3 -103 -3 0 816 0 815 113 0 112 0 31 -53z m3396 -514 c3 -547 4
-570 25 -630 41 -122 107 -203 202 -247 39 -18 64 -21 171 -21 114 0 130 2
181 26 126 59 201 183 223 369 3 25 5 276 5 558 l1 512 106 0 106 0 -5 -562
c-4 -529 -5 -568 -25 -643 -80 -307 -263 -445 -592 -445 -326 0 -509 135 -592
435 -21 77 -22 99 -26 648 l-3 567 110 0 110 0 3 -567z m1698 -247 l0 -814
-110 -1 -110 -2 0 816 0 815 110 0 110 0 0 -814z m2090 474 l0 -340 400 0 400
0 0 340 0 340 110 0 110 0 0 -815 0 -815 -110 0 -110 0 0 385 0 385 -400 0
-400 0 0 -385 0 -385 -110 0 -110 0 0 815 0 815 110 0 110 0 0 -340z m-9540
-3057 c-1 -187 1 -218 14 -225 9 -5 16 -18 16 -28 0 -27 -43 -27 -70 0 -19 19
-20 33 -20 245 l0 225 30 0 31 0 -1 -217z m2700 -3 c0 -189 2 -220 15 -220 9
0 15 -9 15 -25 0 -19 -5 -25 -23 -25 -13 0 -32 6 -43 14 -18 13 -19 30 -22
245 l-4 231 31 0 31 0 0 -220z m1500 -20 l0 -240 -25 0 c-16 0 -25 6 -25 15 0
19 -3 19 -42 -5 -62 -38 -139 -15 -174 52 -23 43 -24 151 -1 195 35 67 107 96
173 68 20 -8 38 -15 40 -15 2 0 4 38 4 85 0 84 0 85 25 85 l25 0 0 -240z
m2080 0 c0 -235 0 -240 -20 -240 -11 0 -23 7 -26 15 -5 12 -12 11 -42 -5 -46
-25 -88 -25 -129 0 -41 25 -63 68 -68 133 -9 138 91 231 195 179 l40 -19 0 88
c0 88 0 89 25 89 l25 0 0 -240z m1187 -2 l3 -238 -25 0 c-16 0 -25 6 -25 15 0
19 2 19 -45 -5 -105 -53 -194 15 -195 149 0 81 31 138 88 163 45 20 63 19 130
-8 9 -4 12 16 12 81 l0 86 28 -3 27 -3 2 -237z m2282 27 c0 -181 3 -218 16
-231 8 -8 15 -22 15 -30 0 -21 -47 -17 -70 6 -19 19 -20 33 -20 245 l0 225 30
0 29 0 0 -215z m811 -25 l0 -240 -25 0 c-16 0 -25 6 -25 15 0 19 -3 19 -42 -5
-42 -25 -84 -25 -125 0 -109 66 -87 281 32 320 32 11 65 7 118 -15 15 -6 17 1
17 79 0 85 0 86 25 86 l25 0 0 -240z m-6772 221 c8 -4 12 -19 10 -32 -2 -19
-9 -24 -33 -24 -24 0 -31 5 -33 24 -4 23 11 41 33 41 6 0 16 -4 23 -9z m2087
-26 c0 -27 -3 -30 -30 -30 -24 0 -31 5 -33 24 -4 27 13 42 43 39 15 -2 20 -11
20 -33z m-6685 -9 c4 -13 30 -97 56 -187 26 -90 50 -167 54 -171 3 -5 21 43
38 105 79 271 80 272 107 275 14 1 25 -2 25 -6 1 -4 -30 -105 -67 -225 l-68
-218 -34 3 -34 3 -69 215 c-37 118 -68 218 -68 222 0 5 11 8 25 8 18 0 28 -7
35 -24z m9050 -51 l0 -45 45 0 c41 0 45 -2 45 -25 0 -23 -4 -25 -45 -25 l-45
0 0 -108 c0 -119 5 -132 56 -132 23 0 33 -5 37 -19 9 -38 -78 -43 -120 -7 -27
24 -28 27 -32 144 -3 117 -4 120 -27 126 -34 9 -30 35 6 43 28 5 30 9 30 49 0
40 2 44 25 44 23 0 25 -4 25 -45z m-8495 -50 c49 -24 58 -54 62 -197 l3 -128
-25 0 c-16 0 -25 6 -25 16 0 12 -5 14 -17 9 -100 -43 -135 -43 -173 -3 -27 29
-26 87 1 122 19 24 59 40 152 60 33 8 36 37 7 66 -24 24 -70 26 -112 4 -30
-15 -32 -15 -45 2 -15 20 -7 27 57 51 47 16 76 16 115 -2z m609 -13 c89 -51
95 -224 10 -291 -79 -62 -199 -21 -233 78 -23 69 -2 161 45 203 44 38 120 42
178 10z m359 22 c9 -3 12 -14 9 -29 -2 -15 -9 -22 -18 -18 -23 9 -69 -16 -87
-46 -13 -22 -17 -54 -17 -135 l0 -106 -30 0 -31 0 1 165 2 165 24 0 c19 0 24
-5 24 -25 0 -14 5 -25 10 -25 6 0 10 5 10 10 0 12 59 50 77 50 6 0 18 -2 26
-6z m287 -29 c24 -24 25 -31 28 -165 3 -127 2 -140 -14 -140 -9 0 -22 7 -28
15 -10 14 -16 13 -51 -5 -47 -24 -76 -25 -114 -5 -33 17 -41 33 -41 85 0 30 6
44 30 64 30 25 86 46 125 46 32 0 48 15 40 39 -16 51 -71 66 -129 36 -28 -15
-56 -7 -56 15 0 6 46 29 90 44 32 11 95 -4 120 -29z m398 0 l22 -26 30 24 c56
48 122 44 157 -9 14 -22 18 -54 21 -161 l4 -133 -31 0 -31 0 0 125 c0 112 -2
127 -20 145 -11 11 -28 20 -37 20 -28 0 -83 -38 -83 -57 -1 -10 -1 -66 -1
-125 l0 -108 -30 0 -29 0 0 125 c0 112 -2 127 -20 145 -26 26 -49 25 -91 -3
l-34 -23 -3 -122 -3 -122 -24 0 -25 0 0 165 0 165 25 0 c21 0 25 -5 25 -27 0
-16 4 -23 8 -17 4 6 23 21 42 33 45 28 96 22 128 -14z m562 13 c55 -29 83 -79
83 -152 0 -105 -58 -171 -150 -171 -111 0 -178 106 -143 229 19 67 75 112 145
115 12 1 41 -9 65 -21z m372 1 c25 -13 19 -45 -7 -41 -83 15 -103 14 -118 -8
-23 -34 -11 -49 69 -85 56 -26 77 -41 84 -61 35 -92 -67 -161 -175 -120 -51
20 -61 31 -45 51 9 11 18 11 53 -6 56 -25 73 -24 103 6 35 35 19 59 -61 95
-96 43 -118 91 -70 149 14 16 36 32 48 34 30 7 95 -1 119 -14z m687 10 c52
-18 65 -56 68 -201 l3 -128 -25 0 c-16 0 -25 6 -25 15 0 19 -1 19 -53 -6 -79
-39 -157 -1 -157 76 0 63 39 90 173 119 33 8 36 37 7 66 -24 24 -74 26 -110 5
-33 -19 -37 -18 -50 4 -9 17 -4 22 43 40 61 23 82 25 126 10z m1531 -25 c24
-23 25 -30 28 -164 3 -127 2 -140 -14 -140 -9 0 -22 7 -28 15 -10 14 -16 13
-51 -5 -73 -38 -149 -11 -158 55 -9 69 35 114 128 130 72 12 76 15 69 38 -17
56 -73 74 -133 42 -25 -13 -31 -13 -41 0 -17 21 -5 33 48 49 60 19 120 11 152
-20z m730 16 c21 -11 26 -35 10 -45 -6 -3 -26 -1 -45 6 -113 41 -187 -133 -94
-220 27 -25 85 -28 116 -6 18 13 22 13 33 0 17 -21 -2 -42 -50 -56 -146 -44
-253 129 -167 270 37 61 133 86 197 51z m1350 -16 c24 -23 25 -30 28 -164 3
-127 2 -140 -14 -140 -9 0 -22 7 -28 15 -10 14 -16 13 -51 -5 -28 -15 -52 -20
-78 -17 -47 6 -63 19 -77 63 -22 64 37 128 130 140 61 8 74 16 65 43 -16 52
-63 64 -132 36 -29 -12 -38 -13 -45 -3 -4 7 -8 16 -8 19 0 5 47 28 90 43 31
11 95 -5 120 -30z m374 26 c45 -17 56 -56 56 -200 l0 -130 -25 0 -25 0 0 109
c0 59 -5 122 -11 140 -17 49 -68 54 -123 10 -25 -20 -26 -23 -26 -140 l0 -119
-25 0 -25 0 0 165 c0 161 1 165 21 165 12 0 23 -8 26 -20 6 -22 18 -26 29 -9
8 13 63 38 86 39 9 0 28 -4 42 -10z m815 -18 c53 -39 66 -69 66 -147 0 -79
-13 -108 -69 -149 -39 -30 -120 -29 -162 1 -97 70 -86 255 19 304 49 23 108
19 146 -9z m1331 14 c23 -9 35 -19 35 -32 0 -19 -4 -20 -67 -7 -57 11 -96 -15
-81 -53 3 -9 39 -31 79 -49 56 -26 77 -41 84 -61 37 -95 -73 -164 -184 -116
-48 22 -55 32 -33 50 10 9 19 8 33 -2 59 -41 138 -22 132 32 -2 22 -15 33 -73
62 -77 39 -102 70 -91 114 15 62 89 90 166 62z m367 -18 c32 -33 42 -81 43
-205 l0 -103 -25 0 c-16 0 -25 6 -25 16 0 12 -5 14 -17 9 -69 -29 -102 -38
-126 -31 -45 11 -67 40 -67 90 0 67 36 92 173 121 33 7 36 36 7 65 -24 24 -70
26 -112 4 -30 -15 -32 -15 -45 2 -11 15 -11 20 4 28 72 40 152 42 190 4z
m-6076 -110 c23 -73 45 -137 49 -141 4 -4 27 54 51 130 43 132 46 138 73 141
21 3 27 0 24 -10 -3 -7 -29 -82 -59 -165 l-54 -153 -31 0 c-21 0 -34 6 -39 18
-4 9 -26 71 -50 137 -24 66 -48 132 -54 148 -10 26 -9 27 19 27 29 0 30 -2 71
-132z m349 -33 l0 -165 -25 0 -25 0 0 165 0 165 25 0 25 0 0 -165z m1680 42
c0 -95 4 -128 16 -145 21 -30 65 -29 103 4 l31 26 0 119 0 119 29 0 29 0 2
-165 1 -165 -26 0 c-18 0 -25 5 -25 20 0 25 -5 25 -37 0 -55 -43 -138 -34
-164 18 -9 18 -14 74 -16 160 l-3 132 30 0 30 0 0 -123z m400 -42 l0 -165 -25
0 -25 0 0 165 0 165 25 0 25 0 0 -165z m2610 68 c1 -108 11 -171 32 -184 25
-16 67 -9 97 17 l31 26 0 119 0 119 25 0 25 0 0 -165 c0 -158 -1 -165 -20
-165 -12 0 -22 9 -26 25 l-6 24 -26 -24 c-54 -51 -135 -43 -164 16 -14 27 -18
60 -18 162 l0 127 25 0 c25 0 25 0 25 -97z m1469 80 c-1 -10 -1 -68 0 -130 1
-87 4 -115 17 -127 23 -24 68 -19 103 10 l31 26 0 119 0 119 25 0 25 0 0 -165
c0 -156 -1 -165 -19 -165 -11 0 -23 9 -26 20 -6 20 -6 20 -36 0 -36 -27 -86
-35 -122 -21 -45 17 -57 62 -57 206 l0 125 31 0 c23 0 30 -4 28 -17z m-5189
-278 c23 -25 23 -26 6 -61 -24 -51 -66 -104 -82 -104 -22 0 -26 20 -10 45 13
19 14 29 5 49 -9 19 -9 32 1 55 10 26 21 34 51 40 3 0 16 -10 29 -24z"/>
<path d="M15847 7429 c-175 -26 -287 -221 -287 -501 0 -260 77 -436 221 -506
67 -33 177 -31 246 4 140 69 217 248 216 499 -1 189 -40 319 -124 410 -72 78
-163 110 -272 94z"/>
<path d="M12003 7422 l-93 -3 0 -234 0 -235 153 0 c231 0 324 32 375 131 44
87 28 215 -35 271 -62 56 -182 77 -400 70z"/>
<path d="M14414 7415 c-3 -6 -3 -120 -2 -253 l3 -243 158 0 c171 0 211 5 272
31 91 40 134 113 135 228 0 84 -14 124 -60 169 -56 54 -103 65 -314 72 -124 4
-190 3 -192 -4z"/>
<path d="M15580 5139 c-25 -5 -77 -25 -117 -44 -126 -62 -217 -186 -265 -362
-31 -113 -31 -372 1 -488 67 -251 225 -407 429 -424 105 -9 174 3 258 44 191
93 304 325 304 625 0 230 -58 401 -177 519 -119 118 -266 162 -433 130z"/>
<path d="M12395 5119 c-2 -8 -25 -81 -49 -164 -25 -82 -79 -251 -121 -375 -41
-123 -75 -230 -75 -237 0 -10 55 -13 255 -13 140 0 255 4 255 8 0 4 -18 62
-41 127 -22 66 -78 241 -125 389 -46 148 -86 272 -89 274 -2 3 -7 -1 -10 -9z"/>
<path d="M15254 1899 c-26 -27 -29 -37 -29 -99 0 -59 3 -72 24 -94 30 -32 81
-35 122 -5 28 20 29 23 29 108 0 85 -1 87 -29 104 -45 26 -83 22 -117 -14z"/>
<path d="M17352 1914 c-55 -38 -69 -135 -29 -195 29 -44 88 -52 130 -19 26 20
27 26 27 110 0 89 0 90 -30 105 -37 19 -70 19 -98 -1z"/>
<path d="M18537 1919 c-46 -27 -65 -135 -33 -196 25 -49 83 -59 130 -22 25 19
26 25 26 109 0 80 -2 90 -22 104 -25 18 -74 20 -101 5z"/>
<path d="M21614 1899 c-26 -27 -29 -37 -29 -99 0 -59 3 -72 24 -94 30 -32 81
-35 122 -5 28 20 29 23 29 109 0 89 0 90 -30 105 -46 24 -82 19 -116 -16z"/>
<path d="M10928 1797 c-69 -22 -91 -54 -68 -98 14 -24 71 -26 111 -2 26 15 29
23 29 65 0 54 -5 56 -72 35z"/>
<path d="M11477 1919 c-63 -37 -62 -194 2 -229 25 -13 67 -13 93 1 39 21 61
115 39 172 -22 57 -86 84 -134 56z"/>
<path d="M12145 1795 c-47 -17 -67 -41 -63 -75 4 -33 41 -51 80 -39 50 14 68
37 68 86 0 38 -3 43 -22 43 -13 -1 -41 -7 -63 -15z"/>
<path d="M13094 1915 c-33 -22 -47 -68 -42 -132 4 -46 10 -61 32 -80 61 -52
138 -15 152 72 16 107 -70 191 -142 140z"/>
<path d="M14209 1798 c-21 -5 -47 -20 -60 -34 -19 -20 -21 -29 -13 -52 12 -34
64 -42 112 -16 29 16 32 21 32 66 0 53 -3 55 -71 36z"/>
<path d="M15697 1796 c-52 -19 -67 -34 -67 -67 0 -39 31 -59 76 -49 54 12 74
36 74 87 0 38 -3 43 -22 43 -13 -1 -40 -7 -61 -14z"/>
<path d="M17775 1795 c-44 -16 -65 -38 -65 -70 0 -31 19 -45 61 -45 57 0 89
31 89 86 0 39 -2 44 -22 44 -13 -1 -41 -7 -63 -15z"/>
<path d="M18930 1902 c-35 -35 -47 -90 -31 -143 25 -82 96 -105 152 -50 25 26
29 37 29 86 0 31 -7 69 -15 85 -30 57 -90 67 -135 22z"/>
<path d="M20678 1797 c-69 -22 -91 -54 -68 -98 15 -27 79 -26 114 2 21 17 26
29 26 65 0 49 -6 52 -72 31z"/>
</g>
</svg>
